<?xml version="1.0" encoding="utf-8"?>
<!-- Generator: Adobe Illustrator 24.3.0, SVG Export Plug-In . SVG Version: 6.00 Build 0)  -->
<svg version="1.1" id="Layer_1" xmlns="http://www.w3.org/2000/svg" xmlns:xlink="http://www.w3.org/1999/xlink" x="0px" y="0px"
	 viewBox="0 0 2000 2000" style="enable-background:new 0 0 2000 2000;" xml:space="preserve">
<style type="text/css">
	.st0{fill:#FFFFFF;}
</style>
<rect class="st0" width="2000" height="2000"/>
<g>
	<path d="M996.76,1237.22c-26.41,12.68-53.37,15.69-80.96,14.11c-22.62-1.3-44.46-6.14-64.08-18.07
		c-26.85-16.33-40.46-41.75-46.18-71.51c-3.02-15.71-4.58-31.91-4.76-47.91c-0.59-51.23-0.23-102.47-0.22-153.7
		c0-12.32,3.05-15.31,15.67-15.34c20.74-0.04,41.48-0.05,62.23,0c12.33,0.03,15.64,3.36,15.64,15.6
		c0.03,51.23-0.22,102.47,0.27,153.7c0.09,9.04,2.23,18.4,5.19,26.99c4.3,12.46,14.39,19.48,27.03,22.21
		c22.89,4.94,44.51,1.31,64.84-10.45c4.33-2.5,5.88-5.43,5.87-10.47c-0.18-60.26-0.12-120.52-0.11-180.79
		c0-13.83,2.93-16.8,16.68-16.81c20.5-0.02,41-0.04,61.49,0.01c12.39,0.03,15.4,3.1,15.41,15.63c0.02,90.51,0.02,181.03,0,271.54
		c0,13.11-2.64,15.69-16.01,15.71c-20.25,0.03-40.51-0.16-60.76,0.09C1006.13,1247.89,999.32,1246.97,996.76,1237.22z"/>
	<path d="M567.95,953.84c25.22-12.35,51.35-15.75,78.24-13.88c29.94,2.08,58.38,8.56,81.07,30.25c19.23,18.38,28.21,41.85,32,67.37
		c2.21,14.88,3.19,30.06,3.31,45.12c0.4,49.75,0.16,99.5,0.14,149.25c0,13.12-2.66,15.74-15.94,15.76
		c-20.73,0.03-41.47,0.05-62.2-0.01c-12.25-0.03-15.42-3.29-15.42-15.76c-0.02-49.75-0.02-99.5-0.01-149.25
		c0-13.51-0.95-26.79-8.48-38.65c-7.36-11.59-19.04-15.79-31.6-17.31c-19.1-2.31-37.34,1.08-54.27,10.76
		c-5.14,2.94-7.41,6.35-7.38,12.67c0.27,60.24,0.17,120.47,0.16,180.71c0,13.91-2.84,16.82-16.55,16.84
		c-20.73,0.03-41.47,0.06-62.2-0.02c-11.63-0.04-14.8-3.22-14.8-14.77c-0.02-91.21-0.02-182.42,0-273.63
		c0-11.08,3.26-14.42,14.29-14.47c21.47-0.09,42.93,0.04,64.4-0.07C559.31,944.72,564.79,946.32,567.95,953.84z"/>
	<path d="M1228.87,967.2c18.61-16.06,38.87-24.12,61.03-26.22c11.41-1.08,23.15,0.62,34.68,1.7c7.53,0.71,10.55,5.68,10.49,13.24
		c-0.19,24.38-0.02,48.77-0.09,73.15c-0.03,10.46-5.03,14.07-15.44,12.87c-12.54-1.44-25.24-3.26-37.76-2.66
		c-29.93,1.44-51.03,22.43-52.15,52.57c-1.17,31.66-0.6,63.38-0.74,95.07c-0.07,15.12,0.03,30.24-0.03,45.35
		c-0.05,12.12-3.18,15.36-15.02,15.4c-21.71,0.07-43.41,0.09-65.12-0.02c-10.47-0.05-14.06-3.67-14.07-14.1
		c-0.05-91.68-0.06-183.37-0.05-275.05c0-9.55,3.61-13.56,13.07-13.64c22.68-0.2,45.36-0.19,68.04-0.01
		c9.25,0.08,12.68,3.75,13.12,12.92C1228.96,960.19,1228.87,962.6,1228.87,967.2z"/>
	<path d="M1444.73,829.76c3.51,0,6.36,0,9.21,0c19.28,0,38.55-0.08,57.83,0.05c10.68,0.07,13.99,3.37,14.11,14.07
		c0.16,13.66,0.16,27.32,0,40.98c-0.12,10.29-3.96,13.87-14.38,13.88c-21.92,0.03-43.84,0.01-66.76,0.01c0,3.14,0,5.72,0,8.3
		c0,19.76,0.06,39.52-0.03,59.28c-0.04,9.48-3.9,13.39-13.25,13.45c-14.15,0.1-28.3,0.09-42.45,0.01
		c-9.71-0.06-13.19-3.44-13.27-13.28c-0.14-19.51-0.05-39.03-0.05-58.55c0-2.86,0-5.72,0-9.21c-12.19,0-23.37,0-34.55,0
		c-11.47,0-22.94,0.09-34.4-0.03c-7.97-0.08-12.29-4.14-12.41-12.13c-0.22-14.63-0.15-29.27-0.04-43.91
		c0.07-8.86,3.92-12.76,13.11-12.84c19.76-0.18,39.53-0.34,59.29,0.07c6.92,0.14,9.29-1.69,9.1-8.92
		c-0.49-19.26-0.21-38.54-0.15-57.81c0.04-11.13,3.73-14.77,14.98-14.82c13.18-0.06,26.35-0.12,39.53,0
		c10.69,0.1,14.54,4,14.57,14.62c0.06,19.27,0.02,38.54,0.02,57.81C1444.73,823.42,1444.73,826.06,1444.73,829.76z"/>
</g>
</svg>
